<svg xmlns="http://www.w3.org/2000/svg" viewBox="0 0 100 100" width="100" height="100">
  <defs>
    <linearGradient id="grad1" x1="0%" y1="0%" x2="100%" y2="100%">
      <stop offset="0%" style="stop-color:#1E40AF;stop-opacity:1" />
      <stop offset="100%" style="stop-color:#3730A3;stop-opacity:1" />
    </linearGradient>
  </defs>
  
  <!-- Background circle -->
  <circle cx="50" cy="50" r="48" fill="url(#grad1)" stroke="#1E3A8A" stroke-width="2"/>
  
  <!-- Browser window outline -->
  <rect x="20" y="25" width="60" height="45" rx="4" fill="none" stroke="white" stroke-width="3"/>
  
  <!-- Browser window controls (dots) -->
  <circle cx="28" cy="32" r="2" fill="white"/>
  <circle cx="34" cy="32" r="2" fill="white"/>
  <circle cx="40" cy="32" r="2" fill="white"/>
  
  <!-- URL bar line -->
  <line x1="44" y1="32" x2="74" y2="32" stroke="white" stroke-width="2"/>
  
  <!-- Code brackets inside browser -->
  <path d="M38 50 L32 56 L38 62 M62 50 L68 56 L62 62" stroke="white" stroke-width="3" stroke-linecap="round" fill="none"/>
  
  <!-- Gear overlapping bottom left -->
  <g transform="translate(30, 60)">
    <circle cx="0" cy="0" r="8" fill="none" stroke="white" stroke-width="3"/>
    <circle cx="0" cy="0" r="3" fill="white"/>
    <!-- Gear teeth -->
    <rect x="-1" y="-12" width="2" height="4" fill="white"/>
    <rect x="-1" y="8" width="2" height="4" fill="white"/>
    <rect x="-12" y="-1" width="4" height="2" fill="white"/>
    <rect x="8" y="-1" width="4" height="2" fill="white"/>
    <rect x="-8.5" y="-8.5" width="2" height="2" fill="white"/>
    <rect x="6.5" y="-8.5" width="2" height="2" fill="white"/>
    <rect x="-8.5" y="6.5" width="2" height="2" fill="white"/>
    <rect x="6.5" y="6.5" width="2" height="2" fill="white"/>
  </g>
</svg>
