<svg xmlns="http://www.w3.org/2000/svg" viewBox="0 0 32 32" width="32" height="32">
  <defs>
    <linearGradient id="grad1" x1="0%" y1="0%" x2="100%" y2="100%">
      <stop offset="0%" style="stop-color:#1E40AF;stop-opacity:1" />
      <stop offset="100%" style="stop-color:#3730A3;stop-opacity:1" />
    </linearGradient>
  </defs>
  
  <!-- Background circle -->
  <circle cx="16" cy="16" r="15" fill="url(#grad1)" stroke="#1E3A8A" stroke-width="1"/>
  
  <!-- Browser window outline -->
  <rect x="6" y="8" width="20" height="14" rx="2" fill="none" stroke="white" stroke-width="1.5"/>
  
  <!-- Browser window controls (dots) -->
  <circle cx="8" cy="10" r="1" fill="white"/>
  <circle cx="10" cy="10" r="1" fill="white"/>
  <circle cx="12" cy="10" r="1" fill="white"/>
  
  <!-- URL bar line -->
  <line x1="14" y1="10" x2="24" y2="10" stroke="white" stroke-width="1"/>
  
  <!-- Code brackets inside browser -->
  <path d="M12 16 L10 18 L12 20 M20 16 L22 18 L20 20" stroke="white" stroke-width="1.5" stroke-linecap="round" fill="none"/>
  
  <!-- Gear overlapping bottom left -->
  <g transform="translate(8, 18)">
    <circle cx="0" cy="0" r="3" fill="none" stroke="white" stroke-width="1.5"/>
    <circle cx="0" cy="0" r="1" fill="white"/>
    <!-- Gear teeth -->
    <rect x="-0.5" y="-4" width="1" height="2" fill="white"/>
    <rect x="-0.5" y="2" width="1" height="2" fill="white"/>
    <rect x="-4" y="-0.5" width="2" height="1" fill="white"/>
    <rect x="2" y="-0.5" width="2" height="1" fill="white"/>
    <rect x="-2.8" y="-2.8" width="1" height="1" fill="white"/>
    <rect x="1.8" y="-2.8" width="1" height="1" fill="white"/>
    <rect x="-2.8" y="1.8" width="1" height="1" fill="white"/>
    <rect x="1.8" y="1.8" width="1" height="1" fill="white"/>
  </g>
</svg>